<svg xmlns="http://www.w3.org/2000/svg" xmlns:xlink="http://www.w3.org/1999/xlink" viewBox="0 0 100 100">
  <defs>
    <style>
      .cls-1 {
        clip-path: url(#clip-calendar-icon);
      }

      .cls-2 {
        fill: #007bff;
      }
    </style>
    <clipPath id="clip-calendar-icon">
      <rect width="100" height="100"/>
    </clipPath>
  </defs>
  <g id="calendar-icon" class="cls-1">
    <path id="Path_3551" data-name="Path 3551" class="cls-2" d="M85.658,86.823H7.649A7.657,7.657,0,0,1,0,79.174V14.93A7.657,7.657,0,0,1,7.649,7.283H15.3v5.354a3.824,3.824,0,0,0,7.649,0V7.283H71.891v5.354a3.824,3.824,0,1,0,7.649,0V7.283h6.118a7.657,7.657,0,0,1,7.649,7.647V79.174A7.657,7.657,0,0,1,85.658,86.823ZM11.424,20.993a4.575,4.575,0,0,0-4.57,4.569v51.41a4.575,4.575,0,0,0,4.57,4.57H82.255a4.575,4.575,0,0,0,4.57-4.57V25.562a4.575,4.575,0,0,0-4.57-4.569ZM80.542,75.259H71.973a2.287,2.287,0,0,1-2.285-2.285v-8a2.287,2.287,0,0,1,2.285-2.285h8.568a2.288,2.288,0,0,1,2.285,2.285v8A2.288,2.288,0,0,1,80.542,75.259Zm-19.422,0H52.552a2.287,2.287,0,0,1-2.285-2.285v-8a2.288,2.288,0,0,1,2.285-2.285H61.12a2.288,2.288,0,0,1,2.285,2.285v8A2.287,2.287,0,0,1,61.12,75.259Zm-19.422,0H33.13a2.287,2.287,0,0,1-2.285-2.285v-8a2.288,2.288,0,0,1,2.285-2.285H41.7a2.288,2.288,0,0,1,2.285,2.285v8A2.288,2.288,0,0,1,41.7,75.259Zm-19.422,0H13.709a2.288,2.288,0,0,1-2.285-2.285v-8a2.288,2.288,0,0,1,2.285-2.285h8.568a2.288,2.288,0,0,1,2.285,2.285v8A2.288,2.288,0,0,1,22.277,75.259ZM80.542,57.55H71.973a2.287,2.287,0,0,1-2.285-2.285v-8a2.287,2.287,0,0,1,2.285-2.285h8.568a2.287,2.287,0,0,1,2.285,2.285v8A2.287,2.287,0,0,1,80.542,57.55Zm-19.422,0H52.552a2.287,2.287,0,0,1-2.285-2.285v-8a2.287,2.287,0,0,1,2.285-2.285H61.12a2.287,2.287,0,0,1,2.285,2.285v8A2.287,2.287,0,0,1,61.12,57.55Zm-19.422,0H33.13a2.287,2.287,0,0,1-2.285-2.285v-8a2.287,2.287,0,0,1,2.285-2.285H41.7a2.287,2.287,0,0,1,2.285,2.285v8A2.287,2.287,0,0,1,41.7,57.55Zm-19.422,0H13.709a2.287,2.287,0,0,1-2.285-2.285v-8a2.287,2.287,0,0,1,2.285-2.285h8.568a2.287,2.287,0,0,1,2.285,2.285v8A2.287,2.287,0,0,1,22.277,57.55ZM80.542,39.272H71.973a2.287,2.287,0,0,1-2.285-2.285v-8A2.287,2.287,0,0,1,71.973,26.7h8.568a2.287,2.287,0,0,1,2.285,2.285v8A2.287,2.287,0,0,1,80.542,39.272Zm-19.422,0H52.552a2.287,2.287,0,0,1-2.285-2.285v-8A2.287,2.287,0,0,1,52.552,26.7H61.12a2.287,2.287,0,0,1,2.285,2.285v8A2.287,2.287,0,0,1,61.12,39.272Zm-19.422,0H33.13a2.287,2.287,0,0,1-2.285-2.285v-8A2.287,2.287,0,0,1,33.13,26.7H41.7a2.288,2.288,0,0,1,2.285,2.285v8A2.288,2.288,0,0,1,41.7,39.272Zm-19.422,0H13.709a2.288,2.288,0,0,1-2.285-2.285v-8A2.288,2.288,0,0,1,13.709,26.7h8.568a2.288,2.288,0,0,1,2.285,2.285v8A2.288,2.288,0,0,1,22.277,39.272ZM75.687,15.28a2.573,2.573,0,0,1-2.57-2.57V3.57a2.57,2.57,0,0,1,5.141,0v9.14A2.573,2.573,0,0,1,75.687,15.28Zm-56.551,0a2.573,2.573,0,0,1-2.57-2.57V3.57a2.57,2.57,0,0,1,5.141,0v9.14A2.573,2.573,0,0,1,19.136,15.28Z" transform="translate(3 6)"/>
  </g>
</svg>
